<svg width="29" height="26" viewBox="0 0 29 26" fill="none" xmlns="http://www.w3.org/2000/svg">
<path d="M6.48146 14.0834H19.5824L13.8588 19.3701C13.4014 19.7926 13.4014 20.4859 13.8588 20.9084C14.3162 21.3309 15.0551 21.3309 15.5125 20.9084L23.2417 13.7693C23.6991 13.3468 23.6991 12.6643 23.2417 12.2418L15.5242 5.09176C15.3051 4.8889 15.0076 4.7749 14.6974 4.7749C14.3871 4.7749 14.0896 4.8889 13.8705 5.09176C13.4131 5.51426 13.4131 6.19676 13.8705 6.61926L19.5824 11.9168H6.48146C5.83638 11.9168 5.30859 12.4043 5.30859 13.0001C5.30859 13.5959 5.83638 14.0834 6.48146 14.0834Z" fill="#37474F"/>
<mask id="mask0_1_250" style="mask-type:luminance" maskUnits="userSpaceOnUse" x="5" y="4" width="19" height="18">
<path d="M6.48146 14.0834H19.5824L13.8588 19.3701C13.4014 19.7926 13.4014 20.4859 13.8588 20.9084C14.3162 21.3309 15.0551 21.3309 15.5125 20.9084L23.2417 13.7693C23.6991 13.3468 23.6991 12.6643 23.2417 12.2418L15.5242 5.09176C15.3051 4.8889 15.0076 4.7749 14.6974 4.7749C14.3871 4.7749 14.0896 4.8889 13.8705 5.09176C13.4131 5.51426 13.4131 6.19676 13.8705 6.61926L19.5824 11.9168H6.48146C5.83638 11.9168 5.30859 12.4043 5.30859 13.0001C5.30859 13.5959 5.83638 14.0834 6.48146 14.0834Z" fill="white"/>
</mask>
<g mask="url(#mask0_1_250)">
</g>
</svg>
